# File created by Blade
# Date/Time:  Wed Apr 08 17:04:22 2015
# Frame Rate: 120.000 fps
#------------------------------------------------------
:FULLY-SPECIFIED
:DEGREES
1314
root 3.713356 35.921394 4.215828 -140.625226 -80.008924 170.858338
Spine -32.638759 -13.662147 -1.548383
Head 49.821655 -17.927762 -19.863804
LeftShoulder 12.743824 1.550791 26.191225
LeftArm 103.383186 41.088647 -38.639798
LeftForeArm 12.981244 -0.000000 99.698494
LeftHand -9.973777 -0.000000 -14.607710
LeftHandThumb1 -26.253704 0.000000 33.147579
RightShoulder -11.941467 -68.535110 -21.208461
RightArm 39.747054 -1.999111 65.694300
RightForeArm 65.345204 -0.000000 122.290314
RightHand 4.845014 -0.000000 24.673993
RightHandThumb1 -24.326973 -0.000000 -32.862282
LeftUpLeg -34.653901 10.576086 -4.835915
LeftLeg 20.858705 -0.000000 -0.000000
LeftFoot -17.894355 10.610307 -15.675383
LeftToeBase 8.639010 -0.000000 -0.000000
RightUpLeg -36.747657 -6.392692 -9.762309
RightLeg 17.273676 -0.000000 -0.000000
RightFoot -10.823842 3.733623 20.499382
RightToeBase 13.912186 -0.000000 -0.000000
1315
root 3.713513 35.922078 4.210663 -140.664208 -80.019077 170.904779
Spine -32.644074 -13.635811 -1.568967
Head 49.864243 -17.889814 -19.913972
LeftShoulder 12.781008 1.591172 26.189385
LeftArm 103.568871 41.071791 -38.298941
LeftForeArm 13.334096 -0.000000 99.722742
LeftHand -9.876648 0.000000 -14.124284
LeftHandThumb1 -26.253704 0.000000 33.147579
RightShoulder -12.059743 -68.522226 -21.055570
RightArm 39.738373 -1.017803 66.520879
RightForeArm 65.924744 -0.000000 122.584360
RightHand 5.309211 -0.000000 23.745857
RightHandThumb1 -24.326973 -0.000000 -32.862282
LeftUpLeg -34.661708 10.600121 -4.827877
LeftLeg 20.855135 -0.000000 -0.000000
LeftFoot -17.879226 10.589390 -15.666309
LeftToeBase 8.637230 -0.000000 -0.000000
RightUpLeg -36.731536 -6.365239 -9.754930
RightLeg 17.237901 -0.000000 -0.000000
RightFoot -10.830929 3.704354 20.513089
RightToeBase 13.935608 -0.000000 -0.000000
1316
root 3.713948 35.922867 4.206578 -140.678674 -80.014531 170.930442
Spine -32.663532 -13.632716 -1.586793
Head 49.908236 -17.799791 -19.927398
LeftShoulder 12.799213 1.674476 26.217769
LeftArm 103.634541 41.096694 -38.093212
LeftForeArm 13.370096 -0.000000 99.828462
LeftHand -10.226992 -0.000000 -14.080909
LeftHandThumb1 -26.253704 0.000000 33.147579
RightShoulder -12.206167 -68.539605 -20.896149
RightArm 39.838062 0.059442 67.360970
RightForeArm 65.977491 0.000000 122.786521
RightHand 5.683579 -0.000000 22.802691
RightHandThumb1 -24.326973 -0.000000 -32.862282
LeftUpLeg -34.669509 10.616033 -4.825891
LeftLeg 20.844258 -0.000000 -0.000000
LeftFoot -17.862202 10.553422 -15.674874
LeftToeBase 8.660888 -0.000000 -0.000000
RightUpLeg -36.726779 -6.337115 -9.759260
RightLeg 17.207845 -0.000000 -0.000000
RightFoot -10.833393 3.688872 20.521653
RightToeBase 13.951122 -0.000000 -0.000000
1317
root 3.712571 35.922848 4.203471 -140.728643 -79.996713 170.974730
Spine -32.664523 -13.643735 -1.606145
Head 49.949020 -17.722450 -19.912416
LeftShoulder 12.786848 1.753099 26.280092
LeftArm 103.647703 41.214733 -38.047422
LeftForeArm 13.235308 0.000000 99.791080
LeftHand -10.174955 -0.000000 -14.102384
LeftHandThumb1 -26.253704 0.000000 33.147579
RightShoulder -12.298466 -68.505660 -20.786438
RightArm 39.925851 1.109813 68.123754
RightForeArm 66.129817 -0.000000 122.904160
RightHand 5.876706 -0.000000 21.970957
RightHandThumb1 -24.326973 -0.000000 -32.862282
LeftUpLeg -34.655212 10.646736 -4.831597
LeftLeg 20.834853 -0.000000 -0.000000
LeftFoot -17.857759 10.572670 -15.660714
LeftToeBase 8.622476 -0.000000 -0.000000
RightUpLeg -36.708734 -6.303734 -9.765000
RightLeg 17.181940 -0.000000 -0.000000
RightFoot -10.838039 3.671424 20.517211
RightToeBase 13.941028 -0.000000 -0.000000
